# ProBuilder 4.1.0
# https://unity3d.com/unity/features/worldbuilding/probuilder
# 12/12/2019 14:16:43

mtllib ./Room_End.mtl
o Room End

g Plane
v 0 0 0
v 0 0 2.5
v -2.5 0 -2.999868
v -2.5 0 2.5
v 0 0 5
v -2.5 0 5
v 0 0 7.5
v -2.5 0 7.5
v 0 0 10
v -2.5 0 10
v -5 0 -2.998394
v -5 0 2.5
v -5 0 5
v -5 0 7.5
v -5 0 10
v -7.5 0 -2.999449
v -7.5 0 2.5
v -7.5 0 5
v -7.5 0 7.5
v -7.5 0 10
v -10 0 0
v -10 0 2.5
v -10 0 5
v -10 0 7.5
v -10 0 10

vt 0 0
vt 0 2.5
vt 2.5 0
vt 2.5 2.5
vt 0 5
vt 2.5 5
vt 0 7.5
vt 2.5 7.5
vt 0 10
vt 2.5 10
vt 5 0
vt 5 2.5
vt 5 5
vt 5 7.5
vt 5 10
vt 7.5 0
vt 7.5 2.5
vt 7.5 5
vt 7.5 7.5
vt 7.5 10
vt 10 0
vt 10 2.5
vt 10 5
vt 10 7.5
vt 10 10

vn 0 1 0

usemtl ProBuilder/Standard_Vertex_Color
f 3/3/1 4/4/1 2/2/1 1/1/1
f 4/4/1 6/6/1 5/5/1 2/2/1
f 6/6/1 8/8/1 7/7/1 5/5/1
f 8/8/1 10/10/1 9/9/1 7/7/1
f 11/11/1 12/12/1 4/4/1 3/3/1
f 12/12/1 13/13/1 6/6/1 4/4/1
f 13/13/1 14/14/1 8/8/1 6/6/1
f 14/14/1 15/15/1 10/10/1 8/8/1
f 16/16/1 17/17/1 12/12/1 11/11/1
f 17/17/1 18/18/1 13/13/1 12/12/1
f 18/18/1 19/19/1 14/14/1 13/13/1
f 19/19/1 20/20/1 15/15/1 14/14/1
f 21/21/1 22/22/1 17/17/1 16/16/1
f 22/22/1 23/23/1 18/18/1 17/17/1
f 23/23/1 24/24/1 19/19/1 18/18/1
f 24/24/1 25/25/1 20/20/1 19/19/1

